<svg width="79" height="54" viewBox="0 0 79 54" fill="none" xmlns="http://www.w3.org/2000/svg">
<path d="M78.3828 17.9043C78.3828 24.6009 75.4238 32.1541 69.5059 40.5638C63.588 48.9735 59.1495 53.1783 56.1905 53.1783C53.3873 53.1783 51.9857 52.2439 51.9857 50.3751C51.9857 49.5964 52.6865 46.9489 54.0881 42.4326C55.334 38.072 55.9569 34.8794 55.9569 32.8549C55.9569 30.8303 55.4118 29.5066 54.3217 28.8836C49.3382 25.4574 46.8464 20.396 46.8464 13.6994C46.8464 9.6503 48.4038 6.37985 51.5185 3.88809C54.4774 1.39632 58.3708 0.150435 63.1986 0.150435C73.3214 0.150436 78.3828 6.06838 78.3828 17.9043ZM31.6622 17.9043C31.6622 24.6009 28.7032 32.1541 22.7853 40.5638C16.8673 48.9735 12.4289 53.1783 9.4699 53.1783C6.66666 53.1783 5.26505 52.2439 5.26505 50.3751C5.26505 49.5964 5.96586 46.9489 7.36748 42.4326C8.61337 38.072 9.23631 34.8794 9.23631 32.8549C9.23631 30.8303 8.69123 29.5066 7.60108 28.8836C2.61755 25.4574 0.125781 20.396 0.125782 13.6994C0.125782 9.65029 1.68314 6.37985 4.79785 3.88809C7.75682 1.39631 11.6502 0.150431 16.478 0.150431C26.6008 0.150432 31.6622 6.06838 31.6622 17.9043Z" fill="#0ECD9F"/>
</svg>
