<svg width="79" height="54" viewBox="0 0 79 54" fill="none" xmlns="http://www.w3.org/2000/svg">
<path d="M0.46875 36.0216C0.46875 29.325 3.42772 21.7718 9.34567 13.3621C15.2636 4.95241 19.7021 0.747559 22.661 0.747559C25.4643 0.747559 26.8659 1.68197 26.8659 3.5508C26.8659 4.32948 26.1651 6.97698 24.7635 11.4933C23.5176 15.8539 22.8946 19.0465 22.8946 21.071C22.8946 23.0956 23.4397 24.4193 24.5299 25.0423C29.5134 28.4685 32.0052 33.5299 32.0052 40.2265C32.0052 44.2756 30.4478 47.546 27.3331 50.0378C24.3741 52.5296 20.4807 53.7755 15.653 53.7755C5.53015 53.7755 0.46875 47.8575 0.46875 36.0216ZM47.1894 36.0216C47.1894 29.325 50.1483 21.7718 56.0663 13.3621C61.9842 4.95241 66.4227 0.747559 69.3817 0.747559C72.1849 0.747559 73.5865 1.68197 73.5865 3.5508C73.5865 4.32948 72.8857 6.97698 71.4841 11.4933C70.2382 15.8539 69.6153 19.0465 69.6153 21.071C69.6153 23.0956 70.1603 24.4193 71.2505 25.0423C76.234 28.4685 78.7258 33.5299 78.7258 40.2265C78.7258 44.2756 77.1684 47.546 74.0537 50.0378C71.0947 52.5296 67.2014 53.7755 62.3736 53.7755C52.2508 53.7755 47.1894 47.8575 47.1894 36.0216Z" fill="#0ECD9F"/>
</svg>
